HIERARCHY
ROOT Hips
{
    OFFSET 0.000000 0.000000 0.000000
    CHANNELS 6 Xposition Yposition Zposition Zrotation Xrotation Yrotation
    JOINT Spine
    {
        OFFSET -0.000000 14.517291 0.000000
        CHANNELS 3 Zrotation Xrotation Yrotation
        JOINT Spine1
        {
            OFFSET -0.000000 37.558300 0.000000
            CHANNELS 3 Zrotation Xrotation Yrotation
            JOINT Neck
            {
                OFFSET -0.000000 37.404057 3.400369
                CHANNELS 3 Zrotation Xrotation Yrotation
                JOINT Head
                {
                    OFFSET -0.000000 24.785618 -3.540803
                    CHANNELS 3 Zrotation Xrotation Yrotation
                    End Site
                    {
                        OFFSET -0.000000 35.408028 0.000000
                    }
                }
            }
            JOINT LeftShoulder
            {
                OFFSET 6.992933 33.973492 -0.192664
                CHANNELS 3 Zrotation Xrotation Yrotation
                JOINT LeftArm
                {
                    OFFSET 21.527611 0.000000 0.000000
                    CHANNELS 3 Zrotation Xrotation Yrotation
                    JOINT LeftForeArm
                    {
                        OFFSET 56.353916 0.000000 0.000000
                        CHANNELS 3 Zrotation Xrotation Yrotation
                        JOINT LeftHand
                        {
                            OFFSET 47.774071 0.000000 0.000000
                            CHANNELS 3 Zrotation Xrotation Yrotation
                            End Site
                            {
                                OFFSET 26.556021 0.000000 0.000000
                            }
                        }
                    }
                }
            }
            JOINT RightShoulder
            {
                OFFSET -7.065357 33.973492 -0.192664
                CHANNELS 3 Zrotation Xrotation Yrotation
                JOINT RightArm
                {
                    OFFSET -21.527611 0.000000 0.000000
                    CHANNELS 3 Zrotation Xrotation Yrotation
                    JOINT RightForeArm
                    {
                        OFFSET -56.353916 0.000000 0.000000
                        CHANNELS 3 Zrotation Xrotation Yrotation
                        JOINT RightHand
                        {
                            OFFSET -47.774071 0.000000 0.000000
                            CHANNELS 3 Zrotation Xrotation Yrotation
                            End Site
                            {
                                OFFSET -26.556021 0.000000 0.000000
                            }
                        }
                    }
                }
            }
        }
    }
    JOINT LeftUpLeg
    {
        OFFSET 17.704014 0.000000 0.000000
        CHANNELS 3 Zrotation Xrotation Yrotation
        JOINT LeftLeg
        {
            OFFSET -0.000000 -81.181816 0.000000
            CHANNELS 3 Zrotation Xrotation Yrotation
            JOINT LeftFoot
            {
                OFFSET -0.000000 -62.821102 0.000000
                CHANNELS 3 Zrotation Xrotation Yrotation
                JOINT LeftToeBase
                {
                    OFFSET -0.000000 -11.507608 26.556021
                    CHANNELS 3 Zrotation Xrotation Yrotation
                    End Site
                    {
                        OFFSET -0.000000 0.000000 7.081605
                    }
                }
            }
        }
    }
    JOINT RightUpLeg
    {
        OFFSET -17.704014 0.000000 0.000000
        CHANNELS 3 Zrotation Xrotation Yrotation
        JOINT RightLeg
        {
            OFFSET -0.000000 -81.181816 0.000000
            CHANNELS 3 Zrotation Xrotation Yrotation
            JOINT RightFoot
            {
                OFFSET -0.000000 -62.821102 0.000000
                CHANNELS 3 Zrotation Xrotation Yrotation
                JOINT RightToeBase
                {
                    OFFSET -0.000000 -11.507608 26.556021
                    CHANNELS 3 Zrotation Xrotation Yrotation
                    End Site
                    {
                        OFFSET -0.000000 0.000000 7.081605
                    }
                }
            }
        }
    }
}
MOTION
Frames:    4
Frame Time:    0.008333
-2.906170    157.818283    -23.760487    -0.966878    -2.072656    -39.850891    2.703777    -0.470318    1.649801    -0.692645    1.904550    0.556492    14.772303    5.075240    16.700140    -8.643394    0.491784    14.686238    -1.250850    9.211187    -8.779823    -43.027454    11.180281    -35.534813    48.652756    -48.001225    -34.326805    -23.508707    -30.956501    -29.002270    -0.469728    11.151251    -4.766733    34.598751    28.193121    57.034241    19.514414    -8.826470    17.953196    19.090689    -7.971264    23.319839    17.280386    -13.838384    5.668818    -11.675842    18.685822    0.080320    -6.511425    -1.849909    33.613754    0.000000    0.000000    0.000000    -11.138353    0.155454    -3.805712    5.755488    26.682878    0.391136    3.513935    -20.748299    -13.542927    0.000000    0.000000    0.000000    
-2.891291    157.812088    -23.756439    -0.926053    -2.057588    -39.876556    2.698455    -0.533938    1.658622    -0.706449    1.940461    0.559348    14.780959    5.062528    16.695585    -8.648860    0.491182    14.678075    -1.251549    9.204141    -8.773018    -43.002579    11.207103    -35.534416    48.687283    -48.001869    -34.278263    -23.523041    -30.958263    -29.031307    -0.468901    11.152602    -4.759710    34.603477    28.195032    57.041832    19.482410    -8.834627    17.940104    19.111526    -7.965452    23.332235    17.262722    -13.868087    5.689269    -11.685353    18.686478    0.086035    -6.490553    -1.849811    33.629852    0.000000    0.000000    0.000000    -11.174916    0.094070    -3.782238    5.768799    26.720234    0.417898    3.517611    -20.779234    -13.554894    0.000000    0.000000    0.000000    
-2.880380    157.806305    -23.763721    -0.922810    -2.062120    -39.881020    2.691637    -0.529044    1.657459    -0.697611    1.939282    0.558875    14.792414    5.052526    16.689892    -8.660173    0.502499    14.668908    -1.256658    9.205385    -8.777314    -42.989052    11.208775    -35.545982    48.694328    -48.000458    -34.257622    -23.518467    -30.967337    -29.014475    -0.473615    11.158061    -4.765259    34.593346    28.221745    57.057102    19.434246    -8.872308    17.952402    19.134415    -7.994970    23.319656    17.258736    -13.876822    5.664410    -11.690130    18.698528    0.092924    -6.502438    -1.857103    33.640350    0.000000    0.000000    0.000000    -11.186619    0.076364    -3.789356    5.777841    26.747696    0.432619    3.511259    -20.787039    -13.574932    0.000000    0.000000    0.000000    
-2.867806    157.799561    -23.772308    -0.916204    -2.066857    -39.885384    2.684114    -0.524738    1.655440    -0.692438    1.939758    0.558159    14.796040    5.042276    16.684124    -8.666646    0.503757    14.660347    -1.260151    9.200430    -8.783403    -42.981220    11.215730    -35.550163    48.713436    -48.006493    -34.231724    -23.506458    -30.983902    -29.009203    -0.473490    11.171344    -4.772336    34.581444    28.232407    57.064266    19.401361    -8.902094    17.993286    19.132496    -8.027223    23.318674    17.258171    -13.893245    5.650359    -11.707739    18.725981    0.086106    -6.479639    -1.858069    33.654972    0.000000    0.000000    0.000000    -11.203962    0.054075    -3.781567    5.794873    26.781933    0.432558    3.491854    -20.796343    -13.594399    0.000000    0.000000    0.000000    
